<svg width="798" height="780" viewBox="0 0 798 780" fill="none" xmlns="http://www.w3.org/2000/svg">
<path d="M727.125 11.2954C752.809 36.979 741.715 77.3306 741.715 128.717C690.348 128.717 650.016 139.772 624.332 114.088C610.152 99.8892 610.152 76.8813 624.332 62.7017C637.184 49.8501 650.014 49.8501 669.293 56.2759C662.867 37.0181 662.867 24.1665 675.719 11.3149C689.918 -2.90381 712.945 -2.90381 727.125 11.2954Z" fill="#EF3E5C"/>
<path d="M727.125 11.2954C712.945 -2.90381 689.918 -2.90381 675.719 11.3149C671.123 15.9106 668.195 20.5103 666.594 25.397C680.703 16.1118 699.844 17.6743 712.232 30.0806C734.744 52.5923 729.002 86.3755 727.24 128.981C731.963 128.819 736.787 128.717 741.715 128.717C741.715 77.3306 752.809 36.979 727.125 11.2954Z" fill="#E42A53"/>
<path d="M106.988 36.041C126.539 36.041 142.379 51.9004 142.379 71.4512C142.379 91.0019 126.539 106.842 106.988 106.842C87.4375 106.842 71.5977 91.0019 71.5977 71.4512C71.5977 51.9004 87.4375 36.041 106.988 36.041Z" fill="#F78F4B"/>
<path d="M79.0859 88.7051C79.0859 69.1543 94.9258 53.2949 114.477 53.2949C125.592 53.2949 135.498 58.4316 141.984 66.4492C139.549 49.2734 124.836 36.043 106.988 36.043C87.4375 36.043 71.5977 51.9023 71.5977 71.4531C71.5977 79.8867 74.5566 87.6191 79.4766 93.6992C79.2461 92.0625 79.0859 90.4043 79.0859 88.7051Z" fill="#DD773E"/>
<path d="M199.82 659.559C225.504 685.261 214.41 725.612 214.41 776.979C163.043 776.979 122.711 788.055 97.0273 762.352C82.8477 748.171 82.8477 725.165 97.0273 710.983C109.859 698.134 122.711 698.134 141.988 704.559C135.563 685.282 135.563 672.45 148.395 659.596C162.613 645.378 185.641 645.378 199.82 659.559Z" fill="#EF3E5C"/>
<path d="M199.82 659.559C185.641 645.377 162.613 645.377 148.394 659.598C140.504 667.5 137.48 675.403 137.805 684.792C138.855 683.469 140.002 682.153 141.314 680.838C155.533 666.62 178.561 666.62 192.74 680.799C214.781 702.854 209.74 735.708 207.867 777.042C210.031 777.004 212.207 776.979 214.412 776.979C214.41 725.612 225.504 685.26 199.82 659.559Z" fill="#E42A53"/>
<path d="M775.387 629.01C789.588 643.211 789.588 666.238 775.406 680.416C749.724 706.098 709.371 695.006 657.984 695.006C657.984 643.639 646.931 603.307 672.613 577.623C686.793 563.443 709.82 563.443 724.002 577.623C736.832 590.453 736.832 603.305 730.428 622.584C749.683 616.158 762.535 616.158 775.387 629.01Z" fill="#EF3E5C"/>
<path d="M686.773 594.707C699.209 582.271 718.451 580.748 732.562 590.127C730.873 585.818 728.096 581.719 724 577.625C709.818 563.445 686.791 563.445 672.611 577.625C646.93 603.307 657.982 643.641 657.982 695.008C662.678 695.008 667.281 695.102 671.789 695.25C670.123 651.873 663.969 617.51 686.773 594.707Z" fill="#E42A53"/>
<path d="M784.234 279.068C792.242 287.076 797.203 298.131 797.203 310.357C797.203 334.791 777.398 354.615 752.945 354.615H699.859C712.086 354.615 723.141 359.576 731.148 367.564C739.158 375.572 744.1 386.646 744.1 398.853C744.1 423.287 724.293 443.092 699.861 443.092H620.23C632.437 443.092 645.721 448.053 655.934 456.061C666.148 464.068 673.316 475.123 673.316 487.35C673.316 511.785 653.51 531.588 629.078 531.588H494.371C528.961 500.67 561.012 471.998 587.672 443.092C613.941 414.615 634.979 385.904 648.006 354.615C657.439 331.959 662.693 307.955 662.693 281.686C662.693 276.412 662.342 271.236 661.736 266.119H752.947C765.172 266.119 776.227 271.061 784.234 279.068Z" fill="#CAE8FB"/>
<path d="M601.018 456.439C627.287 427.963 648.324 399.252 661.352 367.963C670.785 345.307 676.039 321.303 676.039 295.033C676.039 289.76 675.688 284.584 675.082 279.467H766.293C775.105 279.467 783.299 282.043 790.189 286.473C788.467 283.797 786.477 281.311 784.236 279.07C776.227 271.062 765.174 266.121 752.945 266.121H661.734C662.342 271.238 662.691 276.414 662.691 281.688C662.691 307.957 657.439 331.961 648.004 354.617C634.977 385.906 613.941 414.617 587.67 443.094C561.012 472 528.959 500.67 494.369 531.59H522.625C551.504 505.68 578.234 481.143 601.018 456.439Z" fill="#B3D7E8"/>
<path d="M666.875 467.629C664.07 463.486 660.488 459.715 656.395 456.439H633.574C644.848 456.439 657.031 460.676 666.875 467.629Z" fill="#B3D7E8"/>
<path d="M737.1 374.977C735.479 372.451 733.611 370.102 731.525 367.963H713.205C722.016 367.961 730.209 370.549 737.1 374.977Z" fill="#B3D7E8"/>
<path d="M149.977 354.615C163.004 385.904 184 414.615 210.27 443.092C236.91 471.998 268.922 500.668 303.492 531.588H168.922C156.695 531.588 145.641 526.646 137.633 518.639C129.625 510.631 124.684 499.576 124.684 487.348C124.684 462.914 144.488 443.092 168.922 443.092H98.1406C85.9141 443.092 74.8594 438.131 66.8516 430.143C58.8438 422.133 53.9023 411.059 53.9023 398.852C53.9023 374.418 73.707 354.613 98.1406 354.613H45.0547C32.8281 354.613 21.7734 349.652 13.7656 341.645C5.75781 333.637 0.796875 322.582 0.796875 310.355C0.796875 285.922 20.6016 266.117 45.0547 266.117H136.266C135.66 271.234 135.309 276.41 135.309 281.684C135.309 307.955 140.562 331.959 149.977 354.615Z" fill="#CAE8FB"/>
<path d="M6.89063 327.936C6.89063 303.502 26.6953 283.697 51.1484 283.697H135.334C135.328 283.025 135.309 282.359 135.309 281.686C135.309 276.412 135.66 271.236 136.266 266.119H45.0547C20.6016 266.119 0.796875 285.924 0.796875 310.357C0.796875 318.779 3.1504 326.641 7.23047 333.338C7.01563 331.566 6.89063 329.766 6.89063 327.936Z" fill="#B3D7E8"/>
<path d="M661.734 266.119C662.342 271.236 662.691 276.412 662.691 281.686C662.691 307.955 657.439 331.959 648.004 354.615C634.977 385.904 613.941 414.615 587.67 443.092C561.012 471.998 528.959 500.668 494.369 531.588C463.861 558.873 431.381 587.877 398.92 620.357C366.459 587.877 333.998 558.873 303.49 531.588C268.92 500.67 236.908 471.998 210.268 443.092C183.998 414.615 163.002 385.904 149.975 354.615C140.561 331.959 135.307 307.955 135.307 281.686C135.307 276.412 135.658 271.236 136.264 266.119C143.959 200.689 199.623 149.869 267.123 149.869C333.021 149.869 365.971 182.818 398.92 248.736C431.869 182.818 464.818 149.869 530.736 149.869C598.375 149.869 654.039 200.689 661.734 266.119Z" fill="#EF3E5C"/>
<path d="M355.66 553.443C321.09 522.525 289.078 493.854 262.438 464.949C236.168 436.473 215.172 407.76 202.145 376.471C192.73 353.814 187.477 329.811 187.477 303.541C187.477 298.268 187.828 293.092 188.434 287.975C196.129 222.545 251.793 171.725 319.293 171.725C328.084 171.725 336.271 172.33 343.969 173.502C323.656 157.76 299.332 149.869 267.127 149.869C199.627 149.869 143.963 200.689 136.268 266.119C135.662 271.236 135.311 276.412 135.311 281.686C135.311 307.955 140.564 331.959 149.979 354.615C163.006 385.904 184.002 414.615 210.271 443.092C236.912 471.998 268.924 500.668 303.494 531.588C334.002 558.873 366.463 587.877 398.924 620.357C403.795 615.482 408.666 610.711 413.531 605.986C393.807 587.559 374.365 570.172 355.66 553.443Z" fill="#E42A53"/>
<path d="M460.941 470.553C457.975 470.553 455.047 469.209 453.127 466.657C449.887 462.344 450.754 456.223 455.064 452.981C568.603 367.631 557.689 304.135 557.564 303.502C556.4 298.235 559.74 293.08 565.008 291.918C570.289 290.743 575.496 294.141 576.662 299.405C577.332 302.438 591.619 374.762 466.803 468.594C465.043 469.916 462.984 470.553 460.941 470.553Z" fill="#E42A53"/>
<path d="M539.527 630.123C559.078 630.123 574.918 645.982 574.918 665.533C574.918 685.084 559.078 700.924 539.527 700.924C519.975 700.924 504.137 685.084 504.137 665.533C504.137 645.982 519.975 630.123 539.527 630.123Z" fill="#F78F4B"/>
<path d="M511.625 682.787C511.625 663.234 527.463 647.375 547.014 647.375C558.129 647.375 568.037 652.514 574.523 660.529C572.088 643.353 557.375 630.123 539.527 630.123C519.975 630.123 504.137 645.982 504.137 665.533C504.137 673.967 507.096 681.699 512.016 687.779C511.785 686.145 511.625 684.484 511.625 682.787Z" fill="#DD773E"/>
<path d="M319.352 81.2168C313.959 81.2168 309.586 76.8438 309.586 71.4512V18.3457C309.586 12.9531 313.959 8.58008 319.352 8.58008C324.744 8.58008 329.117 12.9531 329.117 18.3457V71.4512C329.117 76.8457 324.744 81.2168 319.352 81.2168Z" fill="#E42A53"/>
<path d="M345.914 54.6738H292.809C287.416 54.6738 283.043 50.3008 283.043 44.9082C283.043 39.5156 287.416 35.1426 292.809 35.1426H345.914C351.307 35.1426 355.68 39.5156 355.68 44.9082C355.68 50.3008 351.307 54.6738 345.914 54.6738Z" fill="#EF3E5C"/>
</svg>
